<?xml version="1.0"?>
<svg width="64" height="64" xmlns="http://www.w3.org/2000/svg" xmlns:svg="http://www.w3.org/2000/svg">
 <g class="layer">
  <title>Layer 1</title>
  <g id="svg_33">
   <g fill="#BE1931" id="svg_1"/>
   <g fill="#BE1931" id="svg_5"/>
   <path d="m17.809644,26.617429c-0.171622,0 -0.346488,-0.031651 -0.511631,-0.100702c-3.280281,-1.35797 -5.111472,-3.768943 -5.441766,-7.163877c-0.058286,-0.592669 0.429055,-1.168082 1.096123,-1.219868c0.668686,-0.051786 1.25156,0.332295 1.311464,0.924973l0.009714,0.10933c0.103622,1.060196 0.377248,3.873959 4.049353,5.394481c0.607156,0.251746 0.871068,0.893331 0.587728,1.434214c-0.205626,0.391283 -0.642778,0.62145 -1.100984,0.62145zm30.662368,0c-0.45658,0 -0.895358,-0.230167 -1.100984,-0.622885c-0.283341,-0.539448 -0.021046,-1.182468 0.587736,-1.434214c3.672096,-1.52053 3.945723,-4.334293 4.047727,-5.394489l1.2208,-0.011507l1.199745,0.197081c-0.331912,3.394934 -2.163103,5.805907 -5.443384,7.163877c-0.165151,0.070486 -0.340009,0.102137 -0.511639,0.102137z" fill="#EA596E" id="svg_32"/>
   <path d="m28.43737,45.761381c0.331912,0.855922 0.995736,1.775146 4.538312,1.775146c2.47236,0 4.907472,-0.379776 4.83461,-1.933383c-0.922883,0.666034 -2.06596,0.950866 -4.83461,0.950866c-2.951604,0 -4.538312,-0.792629 -4.538312,-0.792629z" fill="#BE1931" id="svg_31"/>
   <path d="m28.268983,41.206993c0.352958,0.855931 1.057266,1.775146 4.816799,1.775146c2.622927,0 5.208623,-0.379767 5.129283,-1.933383c-0.979551,0.666043 -2.192246,0.950866 -5.129283,0.950866c-3.13294,-0.001435 -4.816799,-0.792629 -4.816799,-0.792629z" fill="#DD2E44" id="svg_30"/>
   <path d="m26.816658,35.428422c0.454963,1.214119 1.366514,2.517424 6.223788,2.517424c3.390382,0 6.728948,-0.539448 6.628562,-2.741833c-1.26451,0.943673 -2.833406,1.349342 -6.628562,1.349342c-4.047727,0 -6.223788,-1.124933 -6.223788,-1.124933z" fill="#EA596E" id="svg_29"/>
   <ellipse cx="14.78738" cy="15.643573" fill="#292F33" id="svg_28" rx="1.435" ry="1.015" transform="matrix(0.28285 -1.41641 1.5942 0.251306 6.78635 42.8414)"/>
   <ellipse cx="17.865789" cy="18.290899" fill="#292F33" id="svg_27" rx="1.015" ry="1.435" transform="matrix(1.59416 -0.25148 0.283045 1.41637 -3.4773 4.41302)"/>
   <ellipse cx="14.67238" cy="16.307573" fill="#BE1931" id="svg_26" rx="1.435" ry="1.015" transform="matrix(0.28285 -1.41641 1.5942 0.251306 5.57414 43.4668)"/>
   <ellipse cx="17.990789" cy="18.998899" fill="#BE1931" id="svg_25" rx="1.015" ry="1.435" transform="matrix(1.59416 -0.25148 0.283045 1.41637 -3.6746 4.45989)"/>
   <path d="m33.14245,25.106971c0,3.120174 -0.340009,12.69071 -0.340009,13.661712c2.261872,0 8.469467,0.484791 8.116509,-4.508351s-3.817819,-9.15336 -7.7765,-9.15336zm-16.291311,-16.814971c-4.263068,0.963817 -7.569256,7.324993 -6.758091,11.288138c1.266136,6.188553 4.844324,8.324775 8.788438,8.867102c1.211077,-0.083437 5.331665,-4.997457 0.932598,-9.02246s-4.054206,-8.424033 -2.962936,-11.13278l-0.000008,0z" fill="#DD2E44" id="svg_24"/>
   <path d="m33.14245,35.907448c0,1.601088 -0.267147,5.325438 -0.267147,7.808341c1.060501,0 2.979129,-0.024458 4.721266,-0.480469c2.757318,-0.720699 2.049775,-6.246097 1.131753,-7.527823l-5.585871,0.199951z" fill="#BE1931" id="svg_23"/>
   <path d="m33.066353,41.375302c0,1.438528 -0.246101,4.784555 -0.246101,7.014268c0.932598,0 2.629406,-0.023014 4.161063,-0.431553c2.42378,-0.647343 1.802056,-5.611705 0.994127,-6.762531l-4.909089,0.179816z" fill="#A0041E" id="svg_22"/>
   <path d="m37.789245,44.744334c0.302769,1.419836 0.121433,8.943346 -4.794135,9.511557l0,-10.078334l4.794135,0.566776z" fill="#89021F" id="svg_21"/>
   <path d="m33.228261,25.106971c0,3.120174 0.451727,12.69071 0.451727,13.661712c-2.261872,0 -8.582812,0.484791 -8.228227,-4.508351c0.352967,-4.991691 3.817819,-9.15336 7.7765,-9.15336z" fill="#DD2E44" id="svg_20"/>
   <path d="m33.228261,35.907448c0,1.601088 0.035622,5.325438 0.035622,7.808341c-1.060509,0 -2.745978,-0.024458 -4.48974,-0.480469c-2.757318,-0.720699 -2.049775,-6.246097 -1.131745,-7.527823l5.585863,0.199951z" fill="#BE1931" id="svg_19"/>
   <path d="m33.30274,41.375302c0,1.438528 0.030761,4.784555 0.030761,7.014268c-0.932598,0 -2.414066,-0.023014 -3.94734,-0.431553c-2.423788,-0.647343 -1.802056,-5.611705 -0.994127,-6.762531l4.910707,0.179816z" fill="#A0041E" id="svg_18"/>
   <path d="m31.942705,26.213204c-0.417731,0 -0.773925,-0.286267 -0.806312,-0.663164c-0.806303,-9.13466 -4.266303,-14.477363 -9.743699,-15.045583c-0.443631,-0.046028 -0.762585,-0.40279 -0.70916,-0.798387c0.051815,-0.392718 0.443631,-0.673227 0.898602,-0.63007c3.665617,0.379767 9.989792,3.010836 11.168491,16.361831c0.034004,0.395597 -0.297908,0.742287 -0.743156,0.773929l-0.064765,0.001444zm2.295868,0l-0.064765,-0.001444c-0.445248,-0.030207 -0.778778,-0.376888 -0.743156,-0.773929c1.178699,-13.350987 7.504491,-15.982063 11.170117,-16.361831c0.437152,-0.054665 0.845161,0.235916 0.898593,0.630078c0.050189,0.394153 -0.267147,0.75235 -0.710778,0.798378c-5.477396,0.56822 -8.937396,5.910923 -9.743699,15.045583c-0.032387,0.376897 -0.386963,0.663164 -0.806312,0.663164z" fill="#BE1931" id="svg_17"/>
   <path d="m49.50985,8.292c4.263076,0.963817 7.569256,7.324993 6.758091,11.288138c-1.266127,6.188553 -4.844316,8.324775 -8.788429,8.867102c-1.211077,-0.083437 -5.331674,-4.997457 -0.932598,-9.02246s4.055824,-8.424033 2.962936,-11.13278z" fill="#DD2E44" id="svg_16"/>
   <path d="m43.809033,28.073222c1.060501,0 1.343842,2.523182 -4.029924,3.659614s-2.525784,-1.263026 -1.696809,-2.398023c1.060509,-1.451479 5.726733,-1.261591 5.726733,-1.261591z" fill="#BE1931" id="svg_15"/>
   <path d="m50.457023,25.51264c-0.215341,2.055655 -4.816799,4.155912 -8.132702,4.64213c-0.424202,-0.819957 2.192254,-3.217988 3.605722,-4.669467c0.79011,-0.811329 1.13498,-2.738963 3.537714,-1.900297s0.989266,1.927625 0.989266,1.927625l0,0.000008z" fill="#BE1931" id="svg_14"/>
   <path d="m48.276101,18.189082c-1.217556,-1.12061 -3.749811,-3.54022 -2.574356,-5.687941c-1.536518,0.110765 -10.940201,8.8599 0.097151,13.051777c1.735666,-0.197081 2.477204,-7.363837 2.477204,-7.363837z" fill="#BE1931" id="svg_13"/>
   <path d="m28.581466,44.744334c-0.302769,1.419836 -0.121433,8.943346 4.794135,9.511557l0,-10.078334l-4.794135,0.566776z" fill="#89021F" id="svg_12"/>
   <path d="m22.55359,28.073222c-1.060509,0 -1.34385,2.523182 4.029916,3.659614s2.525784,-1.263026 1.696809,-2.398023c-1.062127,-1.451479 -5.726725,-1.261591 -5.726725,-1.261591z" fill="#BE1931" id="svg_11"/>
   <path d="m34.361624,51.842048c1.175463,0.473268 6.881142,3.123044 7.049528,7.854369c-0.111719,1.134996 -4.420122,-1.798169 -8.111647,-1.798169l0,-4.968676l1.062119,-1.087533l0,0.000008zm-18.45765,-26.329407c0.215341,2.055655 4.816799,4.155912 8.132702,4.64213c0.424202,-0.819957 -2.192254,-3.217988 -3.605722,-4.669467c-0.79011,-0.811329 -1.13498,-2.738963 -3.537714,-1.900297s-0.989266,1.927634 -0.989266,1.927634z" fill="#BE1931" id="svg_10"/>
   <path d="m18.086514,18.189082c1.217556,-1.12061 3.749811,-3.54022 2.574356,-5.687941c1.536518,0.110765 10.940201,8.8599 -0.097151,13.051777c-1.735666,-0.197081 -2.477204,-7.363837 -2.477204,-7.363837zm14.20267,33.652965c-1.175455,0.473268 -6.881142,3.123044 -7.049528,7.854369c0.111719,1.134996 4.420122,-1.798169 8.111656,-1.798169l0,-4.968676l-1.062127,-1.087533l0,0.000008z" fill="#BE1931" id="svg_9"/>
   <path d="m37.991628,44.623505c-0.608774,-0.286267 -1.704905,-0.897645 -1.704905,-0.897645c-0.600677,-0.327981 -0.788492,-1.024231 -0.419341,-1.559365c0.367534,-0.532255 1.162505,-0.702008 1.755094,-0.372583l0.272009,0.151044c1.528422,0.850173 5.109854,2.849728 10.490099,1.52053c0.6784,-0.166874 1.382707,0.185574 1.570523,0.788315c0.189433,0.602741 -0.20887,1.228505 -0.88727,1.39537c-5.069371,1.251519 -8.871005,0.012951 -11.076209,-1.025666z" id="svg_8"/>
   <path d="m39.677104,42.708822c-0.681635,-0.092073 -1.241837,-0.202839 -1.654708,-0.287711l-0.28982,-0.057535c-0.689732,-0.132352 -1.125266,-0.735094 -0.976316,-1.347907c0.148958,-0.611378 0.833837,-1.004096 1.51709,-0.867429l0.312492,0.06185c1.759947,0.352447 5.885397,1.185347 10.464192,-1.652865c0.578013,-0.356753 1.374611,-0.231602 1.774523,0.280509c0.403156,0.513555 0.260677,1.219877 -0.315719,1.57663c-4.313265,2.67567 -8.362618,2.626754 -10.831734,2.294459z" fill="black" id="svg_7"/>
   <path d="m38.891847,40.457522l0.103622,0c3.427621,-0.099258 7.964315,-1.447165 10.112851,-7.303414c0.218576,-0.594113 -0.144097,-1.242891 -0.814408,-1.437093c-0.670303,-0.194202 -1.38756,0.122272 -1.606136,0.717829l-0.004853,0.015821c-0.50516,1.379549 -2.044914,5.57574 -7.771647,5.74117c-0.704307,0.021579 -1.256413,0.543762 -1.233749,1.168091c0.02429,0.596984 0.556967,1.068824 1.214321,1.097596zm8.658908,8.108994c-0.244483,-0.317918 -0.66545,-0.516434 -1.130127,-0.491984c-4.912333,0.260374 -7.412209,-2.78787 -8.234706,-3.789087c-0.414488,-0.506362 -1.212703,-0.617127 -1.781002,-0.248859c-0.569917,0.36826 -0.670303,1.074582 -0.280105,1.582379c2.749221,3.351776 6.264271,4.939913 10.448007,4.718374c0.702681,-0.0374 1.24022,-0.573969 1.198127,-1.199733c-0.014576,-0.212902 -0.093908,-0.408539 -0.220194,-0.57109z" fill="black" id="svg_6"/>
   <path d="m28.48108,44.623505c0.608782,-0.286267 1.704905,-0.897645 1.704905,-0.897645c0.600685,-0.327981 0.788501,-1.024231 0.419349,-1.559365c-0.367534,-0.532255 -1.162505,-0.702008 -1.755094,-0.372583l-0.272009,0.151044c-1.528422,0.850173 -5.109854,2.849728 -10.490099,1.52053c-0.6784,-0.166874 -1.382707,0.185574 -1.570523,0.788315c-0.189433,0.602741 0.208862,1.228505 0.887261,1.39537c5.069379,1.251519 8.871005,0.012951 11.076209,-1.025666z" id="svg_4"/>
   <path d="m26.795612,42.708822c0.681635,-0.092073 1.241837,-0.202839 1.654708,-0.287711l0.28982,-0.057535c0.689732,-0.132352 1.125266,-0.735094 0.976316,-1.347907c-0.148958,-0.611378 -0.833837,-1.004096 -1.51709,-0.867429l-0.312492,0.06185c-1.759947,0.352447 -5.885397,1.185347 -10.464192,-1.652865c-0.578013,-0.356753 -1.374611,-0.231602 -1.774523,0.280509c-0.403156,0.513555 -0.260677,1.219877 0.315719,1.57663c4.314883,2.67567 8.362618,2.626754 10.831734,2.294459z" id="svg_3"/>
   <path d="m27.580869,40.457522l-0.103622,0c-3.427621,-0.099258 -7.964315,-1.447165 -10.112851,-7.303414c-0.218576,-0.594113 0.144097,-1.242891 0.8144,-1.437093c0.670312,-0.194202 1.387569,0.122272 1.606145,0.717829l0.004853,0.015821c0.50516,1.379549 2.044914,5.57574 7.771647,5.74117c0.704307,0.021579 1.256413,0.543762 1.233749,1.168091c-0.022672,0.596984 -0.556967,1.068824 -1.214321,1.097596zm-8.658908,8.108994c0.244483,-0.317918 0.66545,-0.516434 1.130127,-0.491984c4.912325,0.260374 7.412209,-2.78787 8.234706,-3.789087c0.414488,-0.506362 1.212695,-0.617127 1.781002,-0.248859c0.569917,0.36826 0.670303,1.074582 0.280097,1.582379c-2.749213,3.351776 -6.264263,4.939913 -10.447998,4.718374c-0.70269,-0.0374 -1.240228,-0.573969 -1.198127,-1.199733c0.016193,-0.212902 0.095525,-0.408539 0.220194,-0.57109z" id="svg_2"/>
  </g>
 </g>
</svg>