<?xml version="1.0"?>
<svg width="64" height="64" xmlns="http://www.w3.org/2000/svg" xmlns:svg="http://www.w3.org/2000/svg">
 <g class="layer">
  <title>Background</title>
  <rect fill="#94e4ff" height="64" id="svg_4" stroke-width="0" width="64" x="0" y="0"/>
 </g>
 <g class="layer">
  <title>Main</title>
  <g id="svg_37">
   <path d="m29.049157,37.75964l-0.064,0c-2.117,-0.069 -4.919,-1.006 -6.246,-5.077c-0.135,-0.413 0.089,-0.864 0.503,-0.999c0.414,-0.135 0.857,0.085 0.992,0.499l0.003,0.011c0.312,0.959 1.263,3.876 4.8,3.991c0.435,0.015 0.776,0.378 0.762,0.812c-0.014,0.415 -0.344,0.743 -0.75,0.763zm-5.348,5.637c0.151,-0.221 0.411,-0.359 0.698,-0.342c3.034,0.181 4.578,-1.938 5.086,-2.634c0.256,-0.352 0.749,-0.429 1.1,-0.173c0.352,0.256 0.414,0.747 0.173,1.1c-1.698,2.33 -3.869,3.434 -6.453,3.28c-0.434,-0.026 -0.766,-0.399 -0.74,-0.834c0.01,-0.148 0.059,-0.284 0.136,-0.397z" fill="#be1931" id="svg_34"/>
   <path d="m28.564157,39.32464c0.421,-0.064 0.767,-0.141 1.022,-0.2l0.179,-0.04c0.426,-0.092 0.695,-0.511 0.603,-0.937c-0.092,-0.425 -0.515,-0.698 -0.937,-0.603l-0.193,0.043c-1.087,0.245 -3.635,0.824 -6.463,-1.149c-0.357,-0.248 -0.849,-0.161 -1.096,0.195c-0.249,0.357 -0.161,0.848 0.195,1.096c2.665,1.86 5.165,1.826 6.69,1.595z" fill="#be1931" id="svg_35"/>
   <path d="m29.605157,40.65564c0.376,-0.199 1.053,-0.624 1.053,-0.624c0.371,-0.228 0.487,-0.712 0.259,-1.084c-0.227,-0.37 -0.718,-0.488 -1.084,-0.259l-0.168,0.105c-0.944,0.591 -3.156,1.981 -6.479,1.057c-0.419,-0.116 -0.854,0.129 -0.97,0.548c-0.117,0.419 0.129,0.854 0.548,0.97c3.131,0.87 5.479,0.009 6.841,-0.713z" fill="#be1931" id="svg_36"/>
  </g>
  <g id="svg_43">
   <path d="m38.109136,40.65564c-0.376,-0.199 -1.053,-0.624 -1.053,-0.624c-0.371,-0.228 -0.487,-0.712 -0.259,-1.084c0.227,-0.37 0.718,-0.488 1.084,-0.259l0.168,0.105c0.944,0.591 3.156,1.981 6.479,1.057c0.419,-0.116 0.854,0.129 0.97,0.548c0.117,0.419 -0.129,0.854 -0.548,0.97c-3.131,0.87 -5.479,0.009 -6.841,-0.713z" fill="#be1931" id="svg_41"/>
   <path d="m39.150136,39.32464c-0.421,-0.064 -0.767,-0.141 -1.022,-0.2l-0.179,-0.04c-0.426,-0.092 -0.695,-0.511 -0.603,-0.937c0.092,-0.425 0.515,-0.698 0.937,-0.603l0.193,0.043c1.087,0.245 3.635,0.824 6.463,-1.149c0.357,-0.248 0.849,-0.161 1.096,0.195c0.249,0.357 0.161,0.848 -0.195,1.096c-2.664,1.86 -5.165,1.826 -6.69,1.595z" fill="#be1931" id="svg_40"/>
   <path d="m38.665136,37.75964l0.064,0c2.117,-0.069 4.919,-1.006 6.246,-5.077c0.135,-0.413 -0.089,-0.864 -0.503,-0.999c-0.414,-0.135 -0.857,0.085 -0.992,0.499l-0.003,0.011c-0.312,0.959 -1.263,3.876 -4.8,3.991c-0.435,0.015 -0.776,0.378 -0.762,0.812c0.015,0.415 0.344,0.743 0.75,0.763zm5.348,5.637c-0.151,-0.221 -0.411,-0.359 -0.698,-0.342c-3.034,0.181 -4.578,-1.938 -5.086,-2.634c-0.256,-0.352 -0.749,-0.429 -1.1,-0.173c-0.352,0.256 -0.414,0.747 -0.173,1.1c1.698,2.33 3.869,3.434 6.453,3.28c0.434,-0.026 0.766,-0.399 0.74,-0.834c-0.009,-0.148 -0.058,-0.284 -0.136,-0.397z" fill="#be1931" id="svg_39"/>
  </g>
  <path d="m22.36321,19.91179c0.92904,-0.90806 2.86125,-2.86871 1.96433,-4.60905c1.17243,0.08976 8.3478,7.17934 -0.07413,10.5761c-1.32438,-0.1597 -1.8902,-5.96705 -1.8902,-5.96705l0,0zm10.83718,27.26961c-0.89691,0.38349 -5.25057,2.53066 -5.37905,6.36454c0.08524,0.9197 3.37272,-1.45709 6.1895,-1.45709l0,-4.02621l-0.81044,-0.88125l0,0.00001l-0.00001,0z" fill="#BE1931" id="svg_9"/>
  <path d="m34.78174,47.1814c0.89693,0.3835 5.25058,2.53066 5.37906,6.36454c-0.08525,0.9197 -3.37272,-1.45709 -6.18949,-1.45709l0,-4.02621l0.81043,-0.88125l0,0.00001zm-14.0839,-21.3352c0.16432,1.66574 3.67541,3.36761 6.20557,3.7616c0.32368,-0.66443 -1.67278,-2.60759 -2.75131,-3.78375c-0.60288,-0.65744 -0.86603,-2.21943 -2.69941,-1.53984s-0.75485,1.56199 -0.75485,1.56199z" fill="#BE1931" id="svg_10"/>
  <path d="m25.77176,27.92108c-0.80921,0 -1.02541,2.04458 3.07498,2.96546s1.92727,-1.02345 1.29473,-1.94317c-0.81044,-1.17616 -4.36971,-1.02229 -4.36971,-1.02229z" fill="#BE1931" id="svg_11"/>
  <path d="m30.37126,41.42999c-0.23102,1.15052 -0.09266,7.24696 3.65811,7.70739l0,-8.16665l-3.65811,0.45926z" fill="#89021F" id="svg_12"/>
  <path d="m45.39902,19.91179c-0.92904,-0.90806 -2.86125,-2.86871 -1.96433,-4.60905c-1.17242,0.08976 -8.3478,7.17934 0.07413,10.5761c1.32438,-0.1597 1.8902,-5.96705 1.8902,-5.96705z" fill="#BE1931" id="svg_13"/>
  <path d="m47.06315,25.8462c-0.16432,1.66573 -3.67541,3.36761 -6.20556,3.7616c-0.32369,-0.66443 1.67277,-2.60759 2.7513,-3.78376c0.60288,-0.65743 0.86603,-2.21942 2.69941,-1.53984s0.75485,1.56199 0.75485,1.56199l0,0.00001z" fill="#BE1931" id="svg_14"/>
  <path d="m41.99048,27.92108c0.8092,0 1.02541,2.04458 -3.07499,2.96546s-1.92727,-1.02345 -1.29473,-1.94317c0.80921,-1.17616 4.36972,-1.02229 4.36972,-1.02229z" fill="#BE1931" id="svg_15"/>
  <path d="m46.34042,11.892c3.25289,0.781 5.77564,5.93557 5.15668,9.14699c-0.9661,5.01469 -3.69639,6.74571 -6.70591,7.18517c-0.9241,-0.06761 -4.06827,-4.04953 -0.71161,-7.31107s3.09476,-6.82614 2.26084,-9.02109z" fill="#DD2E44" id="svg_16"/>
  <path d="m32.93602,26.41388c-0.31875,0 -0.59054,-0.23197 -0.61525,-0.53738c-0.61524,-7.40198 -3.25536,-11.73126 -7.43482,-12.1917c-0.33851,-0.0373 -0.58188,-0.32639 -0.54112,-0.64695c0.03954,-0.31823 0.33852,-0.54553 0.68568,-0.51056c2.797,0.30773 7.62259,2.43974 8.52198,13.25829c0.02595,0.32056 -0.22731,0.60149 -0.56706,0.62713l-0.04941,0.00117zm1.75183,0l-0.04942,-0.00117c-0.33974,-0.02448 -0.59423,-0.3054 -0.56706,-0.62713c0.8994,-10.81855 5.72622,-12.95056 8.52324,-13.25829c0.33356,-0.04429 0.64488,0.19117 0.68565,0.51056c0.0383,0.31939 -0.20384,0.60965 -0.54235,0.64695c-4.17946,0.46043 -6.81957,4.78972 -7.43481,12.1917c-0.02471,0.30541 -0.29527,0.53737 -0.61525,0.53737l0,0.00001z" fill="#BE1931" id="svg_17"/>
  <path d="m33.97377,38.7c0,1.16567 0.02347,3.87702 0.02347,5.68379c-0.71161,0 -1.84201,-0.01864 -3.01197,-0.34969c-1.84944,-0.52456 -1.37504,-4.54727 -0.75856,-5.4798l3.74706,0.1457z" fill="#A0041E" id="svg_18"/>
  <path d="m33.91694,34.2693c0,1.2974 0.02718,4.3153 0.02718,6.32724c-0.80921,0 -2.09529,-0.01982 -3.42584,-0.38933c-2.10394,-0.58399 -1.56406,-5.06133 -0.86356,-6.09993l4.26222,0.16202z" fill="#BE1931" id="svg_19"/>
  <path d="m33.91694,25.51748c0,2.52834 0.34469,10.28351 0.34469,11.07033c-1.72589,0 -6.54901,0.39283 -6.27845,-3.6532c0.26933,-4.04486 2.91314,-7.41713 5.93376,-7.41713z" fill="#DD2E44" id="svg_20"/>
  <path d="m37.39715,41.42999c0.23102,1.15052 0.09266,7.24696 -3.65811,7.70739l0,-8.16665l3.65811,0.45926z" fill="#89021F" id="svg_21"/>
  <path d="m33.7934,38.7c0,1.16567 -0.18778,3.87702 -0.18778,5.68379c0.71161,0 2.00634,-0.01864 3.17504,-0.34969c1.84944,-0.52456 1.37505,-4.54727 0.75856,-5.4798l-3.74582,0.1457z" fill="#A0041E" id="svg_22"/>
  <path d="m33.85147,34.2693c0,1.2974 -0.20385,4.3153 -0.20385,6.32724c0.8092,0 2.27319,-0.01982 3.60251,-0.38933c2.10394,-0.58399 1.56405,-5.06133 0.86357,-6.09993l-4.26223,0.16202z" fill="#BE1931" id="svg_23"/>
  <path d="m33.85147,25.51748c0,2.52834 -0.25945,10.28351 -0.25945,11.07033c1.7259,0 6.46254,0.39283 6.19321,-3.6532s-2.91314,-7.41713 -5.93376,-7.41713zm-12.4309,-13.62548c-3.25288,0.781 -5.77563,5.93557 -5.15668,9.14699c0.96611,5.01469 3.6964,6.74571 6.70592,7.18517c0.92409,-0.06761 4.06826,-4.04953 0.7116,-7.31107s-3.09351,-6.82614 -2.26083,-9.02109l-0.00001,0z" fill="#DD2E44" id="svg_24"/>
  <ellipse cx="22.246841" cy="22.748258" fill="#BE1931" id="svg_25" rx="1.015" ry="1.435" transform="matrix(1.21641 -0.203779 0.215974 1.14771 -0.228206 5.35089)"/>
  <ellipse cx="12.616708" cy="21.593931" fill="#BE1931" id="svg_26" rx="1.435" ry="1.015" transform="matrix(0.215825 -1.14774 1.21644 0.203638 6.82894 36.9589)"/>
  <ellipse cx="22.121841" cy="22.040258" fill="#292F33" id="svg_27" rx="1.015" ry="1.435" transform="matrix(1.21641 -0.203779 0.215974 1.14771 -0.0776584 5.31291)"/>
  <ellipse cx="12.731708" cy="20.929931" fill="#292F33" id="svg_28" rx="1.435" ry="1.015" transform="matrix(0.215825 -1.14774 1.21644 0.203638 7.7539 36.4521)"/>
  <path d="m29.02465,33.88114c0.34715,0.98382 1.0427,2.03992 4.74899,2.03992c2.58699,0 5.13444,-0.43713 5.05784,-2.22177c-0.96487,0.76469 -2.162,1.0934 -5.05784,1.0934c-3.08858,0 -4.74899,-0.91155 -4.74899,-0.91155z" fill="#EA596E" id="svg_29"/>
  <path d="m30.13282,38.56362c0.26932,0.69357 0.80674,1.43843 3.6754,1.43843c2.0014,0 3.97439,-0.30773 3.91385,-1.56665c-0.74744,0.5397 -1.67277,0.7705 -3.91385,0.7705c-2.39055,-0.00116 -3.6754,-0.64228 -3.6754,-0.64228z" fill="#DD2E44" id="svg_30"/>
  <path d="m30.26131,42.25412c0.25326,0.69357 0.75979,1.43844 3.46291,1.43844c1.8865,0 3.74458,-0.30774 3.68899,-1.56666c-0.70419,0.5397 -1.57641,0.77051 -3.68899,0.77051c-2.25219,0 -3.46291,-0.64229 -3.46291,-0.64229z" fill="#BE1931" id="svg_31"/>
  <path d="m22.15194,26.74143c-0.13095,0 -0.26438,-0.02565 -0.39039,-0.0816c-2.50298,-1.10039 -3.90025,-3.05405 -4.15227,-5.80502c-0.04448,-0.48025 0.32738,-0.94652 0.83638,-0.98848c0.51024,-0.04196 0.95499,0.26926 1.00069,0.74952l0.00742,0.0886c0.07907,0.85909 0.28786,3.13913 3.08981,4.37124c0.46329,0.20399 0.66466,0.72388 0.44846,1.16217c-0.1569,0.31706 -0.49046,0.50357 -0.8401,0.50357zm23.39657,0c-0.34839,0 -0.6832,-0.18651 -0.84009,-0.50474c-0.2162,-0.43712 -0.01606,-0.95817 0.44846,-1.16217c2.80195,-1.23211 3.01074,-3.51215 3.08857,-4.37125l0.93152,-0.00933l0.91545,0.1597c-0.25326,2.75098 -1.65053,4.70464 -4.15351,5.80502c-0.12602,0.05712 -0.25944,0.08277 -0.3904,0.08277z" fill="#EA596E" id="svg_32"/>
  <g fill="#BE1931" id="svg_5"/>
  <g fill="#BE1931" id="svg_1"/>
  <g fill="#BE1931" id="svg_33"/>
  <g fill="#BE1931" id="svg_38"/>
 </g>
</svg>